<svg xmlns="http://www.w3.org/2000/svg" xmlns:xlink="http://www.w3.org/1999/xlink" width="500" zoomAndPan="magnify" viewBox="0 0 375 374.999991" height="500" preserveAspectRatio="xMidYMid meet" version="1.0"><defs><clipPath id="dd01ea906c"><path d="M 196.085938 248.25 L 203.585938 248.25 L 203.585938 255.75 L 196.085938 255.75 Z M 196.085938 248.25 " clip-rule="nonzero"/></clipPath><clipPath id="89314e81b0"><path d="M 196.085938 222.429688 L 203.585938 222.429688 L 203.585938 229.929688 L 196.085938 229.929688 Z M 196.085938 222.429688 " clip-rule="nonzero"/></clipPath><clipPath id="f25c5b371f"><path d="M 196.085938 196.609375 L 203.585938 196.609375 L 203.585938 204.109375 L 196.085938 204.109375 Z M 196.085938 196.609375 " clip-rule="nonzero"/></clipPath><clipPath id="74664347e6"><path d="M 196.085938 170.789062 L 203.585938 170.789062 L 203.585938 178.289062 L 196.085938 178.289062 Z M 196.085938 170.789062 " clip-rule="nonzero"/></clipPath><clipPath id="51d4973a67"><path d="M 196.085938 144.972656 L 203.585938 144.972656 L 203.585938 152.472656 L 196.085938 152.472656 Z M 196.085938 144.972656 " clip-rule="nonzero"/></clipPath><clipPath id="4c617daed9"><path d="M 196.085938 119.152344 L 203.585938 119.152344 L 203.585938 126.652344 L 196.085938 126.652344 Z M 196.085938 119.152344 " clip-rule="nonzero"/></clipPath><clipPath id="923c3a2d6c"><path d="M 269.847656 248.25 L 277.347656 248.25 L 277.347656 255.75 L 269.847656 255.75 Z M 269.847656 248.25 " clip-rule="nonzero"/></clipPath><clipPath id="f45b83f0a2"><path d="M 269.847656 222.429688 L 277.347656 222.429688 L 277.347656 229.929688 L 269.847656 229.929688 Z M 269.847656 222.429688 " clip-rule="nonzero"/></clipPath><clipPath id="5673b23688"><path d="M 269.847656 196.609375 L 277.347656 196.609375 L 277.347656 204.109375 L 269.847656 204.109375 Z M 269.847656 196.609375 " clip-rule="nonzero"/></clipPath><clipPath id="8c87243fae"><path d="M 269.847656 170.789062 L 277.347656 170.789062 L 277.347656 178.289062 L 269.847656 178.289062 Z M 269.847656 170.789062 " clip-rule="nonzero"/></clipPath><clipPath id="40096667f5"><path d="M 269.847656 144.972656 L 277.347656 144.972656 L 277.347656 152.472656 L 269.847656 152.472656 Z M 269.847656 144.972656 " clip-rule="nonzero"/></clipPath><clipPath id="46c2e88e19"><path d="M 269.847656 119.152344 L 277.347656 119.152344 L 277.347656 126.652344 L 269.847656 126.652344 Z M 269.847656 119.152344 " clip-rule="nonzero"/></clipPath><clipPath id="a15c1eb89e"><path d="M 294.433594 248.25 L 301.933594 248.25 L 301.933594 255.75 L 294.433594 255.75 Z M 294.433594 248.25 " clip-rule="nonzero"/></clipPath><clipPath id="9722eae73e"><path d="M 294.433594 222.429688 L 301.933594 222.429688 L 301.933594 229.929688 L 294.433594 229.929688 Z M 294.433594 222.429688 " clip-rule="nonzero"/></clipPath><clipPath id="4801eecf1e"><path d="M 294.433594 196.609375 L 301.933594 196.609375 L 301.933594 204.109375 L 294.433594 204.109375 Z M 294.433594 196.609375 " clip-rule="nonzero"/></clipPath><clipPath id="5e981a6976"><path d="M 294.433594 170.789062 L 301.933594 170.789062 L 301.933594 178.289062 L 294.433594 178.289062 Z M 294.433594 170.789062 " clip-rule="nonzero"/></clipPath><clipPath id="f9ac0ce588"><path d="M 294.433594 144.972656 L 301.933594 144.972656 L 301.933594 152.472656 L 294.433594 152.472656 Z M 294.433594 144.972656 " clip-rule="nonzero"/></clipPath><clipPath id="801f3afc0a"><path d="M 294.433594 119.152344 L 301.933594 119.152344 L 301.933594 126.652344 L 294.433594 126.652344 Z M 294.433594 119.152344 " clip-rule="nonzero"/></clipPath><clipPath id="2d4097644b"><path d="M 220.675781 248.25 L 228.175781 248.25 L 228.175781 255.75 L 220.675781 255.75 Z M 220.675781 248.25 " clip-rule="nonzero"/></clipPath><clipPath id="f6b4b3f1de"><path d="M 220.675781 222.429688 L 228.175781 222.429688 L 228.175781 229.929688 L 220.675781 229.929688 Z M 220.675781 222.429688 " clip-rule="nonzero"/></clipPath><clipPath id="455340ac9d"><path d="M 220.675781 196.609375 L 228.175781 196.609375 L 228.175781 204.109375 L 220.675781 204.109375 Z M 220.675781 196.609375 " clip-rule="nonzero"/></clipPath><clipPath id="9378b086c8"><path d="M 220.675781 170.789062 L 228.175781 170.789062 L 228.175781 178.289062 L 220.675781 178.289062 Z M 220.675781 170.789062 " clip-rule="nonzero"/></clipPath><clipPath id="d8e0d280b9"><path d="M 220.675781 144.972656 L 228.175781 144.972656 L 228.175781 152.472656 L 220.675781 152.472656 Z M 220.675781 144.972656 " clip-rule="nonzero"/></clipPath><clipPath id="766f31994f"><path d="M 220.675781 119.152344 L 228.175781 119.152344 L 228.175781 126.652344 L 220.675781 126.652344 Z M 220.675781 119.152344 " clip-rule="nonzero"/></clipPath><clipPath id="b62abb7b09"><path d="M 171.5 248.25 L 179 248.25 L 179 255.75 L 171.5 255.75 Z M 171.5 248.25 " clip-rule="nonzero"/></clipPath><clipPath id="d614243046"><path d="M 171.5 222.429688 L 179 222.429688 L 179 229.929688 L 171.5 229.929688 Z M 171.5 222.429688 " clip-rule="nonzero"/></clipPath><clipPath id="b6c37bfaf8"><path d="M 171.5 196.609375 L 179 196.609375 L 179 204.109375 L 171.5 204.109375 Z M 171.5 196.609375 " clip-rule="nonzero"/></clipPath><clipPath id="9699d8ac06"><path d="M 171.5 170.789062 L 179 170.789062 L 179 178.289062 L 171.5 178.289062 Z M 171.5 170.789062 " clip-rule="nonzero"/></clipPath><clipPath id="c4a0528d31"><path d="M 171.5 144.972656 L 179 144.972656 L 179 152.472656 L 171.5 152.472656 Z M 171.5 144.972656 " clip-rule="nonzero"/></clipPath><clipPath id="ea0658a003"><path d="M 171.5 119.152344 L 179 119.152344 L 179 126.652344 L 171.5 126.652344 Z M 171.5 119.152344 " clip-rule="nonzero"/></clipPath><clipPath id="7c381549a7"><path d="M 319.023438 248.25 L 326.523438 248.25 L 326.523438 255.75 L 319.023438 255.75 Z M 319.023438 248.25 " clip-rule="nonzero"/></clipPath><clipPath id="19dab29936"><path d="M 319.023438 222.429688 L 326.523438 222.429688 L 326.523438 229.929688 L 319.023438 229.929688 Z M 319.023438 222.429688 " clip-rule="nonzero"/></clipPath><clipPath id="24a66e819b"><path d="M 319.023438 196.609375 L 326.523438 196.609375 L 326.523438 204.109375 L 319.023438 204.109375 Z M 319.023438 196.609375 " clip-rule="nonzero"/></clipPath><clipPath id="6db2b4299d"><path d="M 319.023438 170.789062 L 326.523438 170.789062 L 326.523438 178.289062 L 319.023438 178.289062 Z M 319.023438 170.789062 " clip-rule="nonzero"/></clipPath><clipPath id="e613377138"><path d="M 319.023438 144.972656 L 326.523438 144.972656 L 326.523438 152.472656 L 319.023438 152.472656 Z M 319.023438 144.972656 " clip-rule="nonzero"/></clipPath><clipPath id="786de353e4"><path d="M 319.023438 119.152344 L 326.523438 119.152344 L 326.523438 126.652344 L 319.023438 126.652344 Z M 319.023438 119.152344 " clip-rule="nonzero"/></clipPath><clipPath id="5a064f46c9"><path d="M 245.261719 248.25 L 252.761719 248.25 L 252.761719 255.75 L 245.261719 255.75 Z M 245.261719 248.25 " clip-rule="nonzero"/></clipPath><clipPath id="a45cee10a8"><path d="M 245.261719 222.429688 L 252.761719 222.429688 L 252.761719 229.929688 L 245.261719 229.929688 Z M 245.261719 222.429688 " clip-rule="nonzero"/></clipPath><clipPath id="ce8999ab04"><path d="M 245.261719 196.609375 L 252.761719 196.609375 L 252.761719 204.109375 L 245.261719 204.109375 Z M 245.261719 196.609375 " clip-rule="nonzero"/></clipPath><clipPath id="18388426e0"><path d="M 245.261719 170.789062 L 252.761719 170.789062 L 252.761719 178.289062 L 245.261719 178.289062 Z M 245.261719 170.789062 " clip-rule="nonzero"/></clipPath><clipPath id="c1dbaeebec"><path d="M 245.261719 144.972656 L 252.761719 144.972656 L 252.761719 152.472656 L 245.261719 152.472656 Z M 245.261719 144.972656 " clip-rule="nonzero"/></clipPath><clipPath id="f50e4674cc"><path d="M 245.261719 119.152344 L 252.761719 119.152344 L 252.761719 126.652344 L 245.261719 126.652344 Z M 245.261719 119.152344 " clip-rule="nonzero"/></clipPath><clipPath id="142f233b6e"><path d="M 48.566406 248.25 L 56.066406 248.25 L 56.066406 255.75 L 48.566406 255.75 Z M 48.566406 248.25 " clip-rule="nonzero"/></clipPath><clipPath id="e3c67cde81"><path d="M 48.566406 222.429688 L 56.066406 222.429688 L 56.066406 229.929688 L 48.566406 229.929688 Z M 48.566406 222.429688 " clip-rule="nonzero"/></clipPath><clipPath id="af972e4c9f"><path d="M 48.566406 196.609375 L 56.066406 196.609375 L 56.066406 204.109375 L 48.566406 204.109375 Z M 48.566406 196.609375 " clip-rule="nonzero"/></clipPath><clipPath id="88933c3294"><path d="M 48.566406 170.789062 L 56.066406 170.789062 L 56.066406 178.289062 L 48.566406 178.289062 Z M 48.566406 170.789062 " clip-rule="nonzero"/></clipPath><clipPath id="040b90eb04"><path d="M 48.566406 144.972656 L 56.066406 144.972656 L 56.066406 152.472656 L 48.566406 152.472656 Z M 48.566406 144.972656 " clip-rule="nonzero"/></clipPath><clipPath id="72c77e5398"><path d="M 48.566406 119.152344 L 56.066406 119.152344 L 56.066406 126.652344 L 48.566406 126.652344 Z M 48.566406 119.152344 " clip-rule="nonzero"/></clipPath><clipPath id="4098a25932"><path d="M 122.328125 248.25 L 129.828125 248.25 L 129.828125 255.75 L 122.328125 255.75 Z M 122.328125 248.25 " clip-rule="nonzero"/></clipPath><clipPath id="a96b1429da"><path d="M 122.328125 222.429688 L 129.828125 222.429688 L 129.828125 229.929688 L 122.328125 229.929688 Z M 122.328125 222.429688 " clip-rule="nonzero"/></clipPath><clipPath id="786f3926ea"><path d="M 122.328125 196.609375 L 129.828125 196.609375 L 129.828125 204.109375 L 122.328125 204.109375 Z M 122.328125 196.609375 " clip-rule="nonzero"/></clipPath><clipPath id="ad776eef9b"><path d="M 122.328125 170.789062 L 129.828125 170.789062 L 129.828125 178.289062 L 122.328125 178.289062 Z M 122.328125 170.789062 " clip-rule="nonzero"/></clipPath><clipPath id="161c19a92f"><path d="M 122.328125 144.972656 L 129.828125 144.972656 L 129.828125 152.472656 L 122.328125 152.472656 Z M 122.328125 144.972656 " clip-rule="nonzero"/></clipPath><clipPath id="9a5668ceef"><path d="M 122.328125 119.152344 L 129.828125 119.152344 L 129.828125 126.652344 L 122.328125 126.652344 Z M 122.328125 119.152344 " clip-rule="nonzero"/></clipPath><clipPath id="6550636ca0"><path d="M 146.914062 248.25 L 154.414062 248.25 L 154.414062 255.75 L 146.914062 255.75 Z M 146.914062 248.25 " clip-rule="nonzero"/></clipPath><clipPath id="3def4a69d7"><path d="M 146.914062 222.429688 L 154.414062 222.429688 L 154.414062 229.929688 L 146.914062 229.929688 Z M 146.914062 222.429688 " clip-rule="nonzero"/></clipPath><clipPath id="b2c19d2442"><path d="M 146.914062 196.609375 L 154.414062 196.609375 L 154.414062 204.109375 L 146.914062 204.109375 Z M 146.914062 196.609375 " clip-rule="nonzero"/></clipPath><clipPath id="ce4952dea1"><path d="M 146.914062 170.789062 L 154.414062 170.789062 L 154.414062 178.289062 L 146.914062 178.289062 Z M 146.914062 170.789062 " clip-rule="nonzero"/></clipPath><clipPath id="7c828a670d"><path d="M 146.914062 144.972656 L 154.414062 144.972656 L 154.414062 152.472656 L 146.914062 152.472656 Z M 146.914062 144.972656 " clip-rule="nonzero"/></clipPath><clipPath id="511fe20859"><path d="M 146.914062 119.152344 L 154.414062 119.152344 L 154.414062 126.652344 L 146.914062 126.652344 Z M 146.914062 119.152344 " clip-rule="nonzero"/></clipPath><clipPath id="32e89c9883"><path d="M 73.152344 248.25 L 80.652344 248.25 L 80.652344 255.75 L 73.152344 255.75 Z M 73.152344 248.25 " clip-rule="nonzero"/></clipPath><clipPath id="aded65b01d"><path d="M 73.152344 222.429688 L 80.652344 222.429688 L 80.652344 229.929688 L 73.152344 229.929688 Z M 73.152344 222.429688 " clip-rule="nonzero"/></clipPath><clipPath id="ee4f8c0e58"><path d="M 73.152344 196.609375 L 80.652344 196.609375 L 80.652344 204.109375 L 73.152344 204.109375 Z M 73.152344 196.609375 " clip-rule="nonzero"/></clipPath><clipPath id="3583251749"><path d="M 73.152344 170.789062 L 80.652344 170.789062 L 80.652344 178.289062 L 73.152344 178.289062 Z M 73.152344 170.789062 " clip-rule="nonzero"/></clipPath><clipPath id="94dff7ca31"><path d="M 73.152344 144.972656 L 80.652344 144.972656 L 80.652344 152.472656 L 73.152344 152.472656 Z M 73.152344 144.972656 " clip-rule="nonzero"/></clipPath><clipPath id="95fd50ad0e"><path d="M 73.152344 119.152344 L 80.652344 119.152344 L 80.652344 126.652344 L 73.152344 126.652344 Z M 73.152344 119.152344 " clip-rule="nonzero"/></clipPath><clipPath id="61bd8c8352"><path d="M 23.980469 248.25 L 31.480469 248.25 L 31.480469 255.75 L 23.980469 255.75 Z M 23.980469 248.25 " clip-rule="nonzero"/></clipPath><clipPath id="5beefda0e9"><path d="M 23.980469 222.429688 L 31.480469 222.429688 L 31.480469 229.929688 L 23.980469 229.929688 Z M 23.980469 222.429688 " clip-rule="nonzero"/></clipPath><clipPath id="c581f7d1b8"><path d="M 23.980469 196.609375 L 31.480469 196.609375 L 31.480469 204.109375 L 23.980469 204.109375 Z M 23.980469 196.609375 " clip-rule="nonzero"/></clipPath><clipPath id="37b7380cfc"><path d="M 23.980469 170.789062 L 31.480469 170.789062 L 31.480469 178.289062 L 23.980469 178.289062 Z M 23.980469 170.789062 " clip-rule="nonzero"/></clipPath><clipPath id="86fbe22fd7"><path d="M 23.980469 144.972656 L 31.480469 144.972656 L 31.480469 152.472656 L 23.980469 152.472656 Z M 23.980469 144.972656 " clip-rule="nonzero"/></clipPath><clipPath id="108d997ae0"><path d="M 23.980469 119.152344 L 31.480469 119.152344 L 31.480469 126.652344 L 23.980469 126.652344 Z M 23.980469 119.152344 " clip-rule="nonzero"/></clipPath><clipPath id="a11b177332"><path d="M 343.609375 248.25 L 351.109375 248.25 L 351.109375 255.75 L 343.609375 255.75 Z M 343.609375 248.25 " clip-rule="nonzero"/></clipPath><clipPath id="6897987b27"><path d="M 343.609375 222.429688 L 351.109375 222.429688 L 351.109375 229.929688 L 343.609375 229.929688 Z M 343.609375 222.429688 " clip-rule="nonzero"/></clipPath><clipPath id="5e1ad592e6"><path d="M 343.609375 196.609375 L 351.109375 196.609375 L 351.109375 204.109375 L 343.609375 204.109375 Z M 343.609375 196.609375 " clip-rule="nonzero"/></clipPath><clipPath id="c46b1e71c9"><path d="M 343.609375 170.789062 L 351.109375 170.789062 L 351.109375 178.289062 L 343.609375 178.289062 Z M 343.609375 170.789062 " clip-rule="nonzero"/></clipPath><clipPath id="181be9d847"><path d="M 343.609375 144.972656 L 351.109375 144.972656 L 351.109375 152.472656 L 343.609375 152.472656 Z M 343.609375 144.972656 " clip-rule="nonzero"/></clipPath><clipPath id="a1c4e19ae7"><path d="M 343.609375 119.152344 L 351.109375 119.152344 L 351.109375 126.652344 L 343.609375 126.652344 Z M 343.609375 119.152344 " clip-rule="nonzero"/></clipPath><clipPath id="2f268e4c7f"><path d="M 97.742188 248.25 L 105.242188 248.25 L 105.242188 255.75 L 97.742188 255.75 Z M 97.742188 248.25 " clip-rule="nonzero"/></clipPath><clipPath id="1396a079d4"><path d="M 97.742188 222.429688 L 105.242188 222.429688 L 105.242188 229.929688 L 97.742188 229.929688 Z M 97.742188 222.429688 " clip-rule="nonzero"/></clipPath><clipPath id="fb4fc0bac1"><path d="M 97.742188 196.609375 L 105.242188 196.609375 L 105.242188 204.109375 L 97.742188 204.109375 Z M 97.742188 196.609375 " clip-rule="nonzero"/></clipPath><clipPath id="c6fdd62056"><path d="M 97.742188 170.789062 L 105.242188 170.789062 L 105.242188 178.289062 L 97.742188 178.289062 Z M 97.742188 170.789062 " clip-rule="nonzero"/></clipPath><clipPath id="b3d31b33b1"><path d="M 97.742188 144.972656 L 105.242188 144.972656 L 105.242188 152.472656 L 97.742188 152.472656 Z M 97.742188 144.972656 " clip-rule="nonzero"/></clipPath><clipPath id="9c78b373f0"><path d="M 97.742188 119.152344 L 105.242188 119.152344 L 105.242188 126.652344 L 97.742188 126.652344 Z M 97.742188 119.152344 " clip-rule="nonzero"/></clipPath><clipPath id="2bbd76bd15"><path d="M 368.195312 248.25 L 375 248.25 L 375 255.75 L 368.195312 255.75 Z M 368.195312 248.25 " clip-rule="nonzero"/></clipPath><clipPath id="35fcf5e738"><path d="M 368.195312 222.429688 L 375 222.429688 L 375 229.929688 L 368.195312 229.929688 Z M 368.195312 222.429688 " clip-rule="nonzero"/></clipPath><clipPath id="5ef84c0697"><path d="M 368.195312 196.609375 L 375 196.609375 L 375 204.109375 L 368.195312 204.109375 Z M 368.195312 196.609375 " clip-rule="nonzero"/></clipPath><clipPath id="86fc929904"><path d="M 368.195312 170.789062 L 375 170.789062 L 375 178.289062 L 368.195312 178.289062 Z M 368.195312 170.789062 " clip-rule="nonzero"/></clipPath><clipPath id="cdc2cc229e"><path d="M 368.195312 144.972656 L 375 144.972656 L 375 152.472656 L 368.195312 152.472656 Z M 368.195312 144.972656 " clip-rule="nonzero"/></clipPath><clipPath id="eb4eec60df"><path d="M 368.195312 119.152344 L 375 119.152344 L 375 126.652344 L 368.195312 126.652344 Z M 368.195312 119.152344 " clip-rule="nonzero"/></clipPath><clipPath id="acb6c02f25"><path d="M 0 248.25 L 6.894531 248.25 L 6.894531 255.75 L 0 255.75 Z M 0 248.25 " clip-rule="nonzero"/></clipPath><clipPath id="1bc44d3683"><path d="M 0 222.429688 L 6.894531 222.429688 L 6.894531 229.929688 L 0 229.929688 Z M 0 222.429688 " clip-rule="nonzero"/></clipPath><clipPath id="5df877e842"><path d="M 0 196.609375 L 6.894531 196.609375 L 6.894531 204.109375 L 0 204.109375 Z M 0 196.609375 " clip-rule="nonzero"/></clipPath><clipPath id="72bf94b88d"><path d="M 0 170.789062 L 6.894531 170.789062 L 6.894531 178.289062 L 0 178.289062 Z M 0 170.789062 " clip-rule="nonzero"/></clipPath><clipPath id="8d3dfc58be"><path d="M 0 144.972656 L 6.894531 144.972656 L 6.894531 152.472656 L 0 152.472656 Z M 0 144.972656 " clip-rule="nonzero"/></clipPath><clipPath id="0def6d7c72"><path d="M 0 119.152344 L 6.894531 119.152344 L 6.894531 126.652344 L 0 126.652344 Z M 0 119.152344 " clip-rule="nonzero"/></clipPath></defs><g clip-path="url(#dd01ea906c)"><path fill="#8c9290" d="M 203.585938 252 C 203.585938 254.070312 201.910156 255.75 199.835938 255.75 C 197.765625 255.75 196.085938 254.070312 196.085938 252 C 196.085938 249.929688 197.765625 248.25 199.835938 248.25 C 201.910156 248.25 203.585938 249.929688 203.585938 252 Z M 203.585938 252 " fill-opacity="1" fill-rule="evenodd"/></g><g clip-path="url(#89314e81b0)"><path fill="#8c9290" d="M 203.585938 226.179688 C 203.585938 228.25 201.910156 229.929688 199.835938 229.929688 C 197.765625 229.929688 196.085938 228.25 196.085938 226.179688 C 196.085938 224.109375 197.765625 222.429688 199.835938 222.429688 C 201.910156 222.429688 203.585938 224.109375 203.585938 226.179688 Z M 203.585938 226.179688 " fill-opacity="1" fill-rule="evenodd"/></g><g clip-path="url(#f25c5b371f)"><path fill="#8c9290" d="M 203.585938 200.359375 C 203.585938 202.429688 201.910156 204.109375 199.835938 204.109375 C 197.765625 204.109375 196.085938 202.429688 196.085938 200.359375 C 196.085938 198.289062 197.765625 196.609375 199.835938 196.609375 C 201.910156 196.609375 203.585938 198.289062 203.585938 200.359375 Z M 203.585938 200.359375 " fill-opacity="1" fill-rule="evenodd"/></g><g clip-path="url(#74664347e6)"><path fill="#8c9290" d="M 203.585938 174.539062 C 203.585938 176.613281 201.910156 178.289062 199.835938 178.289062 C 197.765625 178.289062 196.085938 176.613281 196.085938 174.539062 C 196.085938 172.46875 197.765625 170.789062 199.835938 170.789062 C 201.910156 170.789062 203.585938 172.46875 203.585938 174.539062 Z M 203.585938 174.539062 " fill-opacity="1" fill-rule="evenodd"/></g><g clip-path="url(#51d4973a67)"><path fill="#8c9290" d="M 203.585938 148.722656 C 203.585938 150.792969 201.910156 152.472656 199.835938 152.472656 C 197.765625 152.472656 196.085938 150.792969 196.085938 148.722656 C 196.085938 146.648438 197.765625 144.972656 199.835938 144.972656 C 201.910156 144.972656 203.585938 146.648438 203.585938 148.722656 Z M 203.585938 148.722656 " fill-opacity="1" fill-rule="evenodd"/></g><g clip-path="url(#4c617daed9)"><path fill="#8c9290" d="M 203.585938 122.902344 C 203.585938 124.972656 201.910156 126.652344 199.835938 126.652344 C 197.765625 126.652344 196.085938 124.972656 196.085938 122.902344 C 196.085938 120.828125 197.765625 119.152344 199.835938 119.152344 C 201.910156 119.152344 203.585938 120.828125 203.585938 122.902344 Z M 203.585938 122.902344 " fill-opacity="1" fill-rule="evenodd"/></g><g clip-path="url(#923c3a2d6c)"><path fill="#8c9290" d="M 277.347656 252 C 277.347656 254.070312 275.667969 255.75 273.597656 255.75 C 271.527344 255.75 269.847656 254.070312 269.847656 252 C 269.847656 249.929688 271.527344 248.25 273.597656 248.25 C 275.667969 248.25 277.347656 249.929688 277.347656 252 Z M 277.347656 252 " fill-opacity="1" fill-rule="evenodd"/></g><g clip-path="url(#f45b83f0a2)"><path fill="#8c9290" d="M 277.347656 226.179688 C 277.347656 228.25 275.667969 229.929688 273.597656 229.929688 C 271.527344 229.929688 269.847656 228.25 269.847656 226.179688 C 269.847656 224.109375 271.527344 222.429688 273.597656 222.429688 C 275.667969 222.429688 277.347656 224.109375 277.347656 226.179688 Z M 277.347656 226.179688 " fill-opacity="1" fill-rule="evenodd"/></g><g clip-path="url(#5673b23688)"><path fill="#8c9290" d="M 277.347656 200.359375 C 277.347656 202.429688 275.667969 204.109375 273.597656 204.109375 C 271.527344 204.109375 269.847656 202.429688 269.847656 200.359375 C 269.847656 198.289062 271.527344 196.609375 273.597656 196.609375 C 275.667969 196.609375 277.347656 198.289062 277.347656 200.359375 Z M 277.347656 200.359375 " fill-opacity="1" fill-rule="evenodd"/></g><g clip-path="url(#8c87243fae)"><path fill="#8c9290" d="M 277.347656 174.539062 C 277.347656 176.613281 275.667969 178.289062 273.597656 178.289062 C 271.527344 178.289062 269.847656 176.613281 269.847656 174.539062 C 269.847656 172.46875 271.527344 170.789062 273.597656 170.789062 C 275.667969 170.789062 277.347656 172.46875 277.347656 174.539062 Z M 277.347656 174.539062 " fill-opacity="1" fill-rule="evenodd"/></g><g clip-path="url(#40096667f5)"><path fill="#8c9290" d="M 277.347656 148.722656 C 277.347656 150.792969 275.667969 152.472656 273.597656 152.472656 C 271.527344 152.472656 269.847656 150.792969 269.847656 148.722656 C 269.847656 146.648438 271.527344 144.972656 273.597656 144.972656 C 275.667969 144.972656 277.347656 146.648438 277.347656 148.722656 Z M 277.347656 148.722656 " fill-opacity="1" fill-rule="evenodd"/></g><g clip-path="url(#46c2e88e19)"><path fill="#8c9290" d="M 277.347656 122.902344 C 277.347656 124.972656 275.667969 126.652344 273.597656 126.652344 C 271.527344 126.652344 269.847656 124.972656 269.847656 122.902344 C 269.847656 120.828125 271.527344 119.152344 273.597656 119.152344 C 275.667969 119.152344 277.347656 120.828125 277.347656 122.902344 Z M 277.347656 122.902344 " fill-opacity="1" fill-rule="evenodd"/></g><g clip-path="url(#a15c1eb89e)"><path fill="#8c9290" d="M 301.933594 252 C 301.933594 254.070312 300.257812 255.75 298.183594 255.75 C 296.113281 255.75 294.433594 254.070312 294.433594 252 C 294.433594 249.929688 296.113281 248.25 298.183594 248.25 C 300.257812 248.25 301.933594 249.929688 301.933594 252 Z M 301.933594 252 " fill-opacity="1" fill-rule="evenodd"/></g><g clip-path="url(#9722eae73e)"><path fill="#8c9290" d="M 301.933594 226.179688 C 301.933594 228.25 300.257812 229.929688 298.183594 229.929688 C 296.113281 229.929688 294.433594 228.25 294.433594 226.179688 C 294.433594 224.109375 296.113281 222.429688 298.183594 222.429688 C 300.257812 222.429688 301.933594 224.109375 301.933594 226.179688 Z M 301.933594 226.179688 " fill-opacity="1" fill-rule="evenodd"/></g><g clip-path="url(#4801eecf1e)"><path fill="#8c9290" d="M 301.933594 200.359375 C 301.933594 202.429688 300.257812 204.109375 298.183594 204.109375 C 296.113281 204.109375 294.433594 202.429688 294.433594 200.359375 C 294.433594 198.289062 296.113281 196.609375 298.183594 196.609375 C 300.257812 196.609375 301.933594 198.289062 301.933594 200.359375 Z M 301.933594 200.359375 " fill-opacity="1" fill-rule="evenodd"/></g><g clip-path="url(#5e981a6976)"><path fill="#8c9290" d="M 301.933594 174.539062 C 301.933594 176.613281 300.257812 178.289062 298.183594 178.289062 C 296.113281 178.289062 294.433594 176.613281 294.433594 174.539062 C 294.433594 172.46875 296.113281 170.789062 298.183594 170.789062 C 300.257812 170.789062 301.933594 172.46875 301.933594 174.539062 Z M 301.933594 174.539062 " fill-opacity="1" fill-rule="evenodd"/></g><g clip-path="url(#f9ac0ce588)"><path fill="#8c9290" d="M 301.933594 148.722656 C 301.933594 150.792969 300.257812 152.472656 298.183594 152.472656 C 296.113281 152.472656 294.433594 150.792969 294.433594 148.722656 C 294.433594 146.648438 296.113281 144.972656 298.183594 144.972656 C 300.257812 144.972656 301.933594 146.648438 301.933594 148.722656 Z M 301.933594 148.722656 " fill-opacity="1" fill-rule="evenodd"/></g><g clip-path="url(#801f3afc0a)"><path fill="#8c9290" d="M 301.933594 122.902344 C 301.933594 124.972656 300.257812 126.652344 298.183594 126.652344 C 296.113281 126.652344 294.433594 124.972656 294.433594 122.902344 C 294.433594 120.828125 296.113281 119.152344 298.183594 119.152344 C 300.257812 119.152344 301.933594 120.828125 301.933594 122.902344 Z M 301.933594 122.902344 " fill-opacity="1" fill-rule="evenodd"/></g><g clip-path="url(#2d4097644b)"><path fill="#8c9290" d="M 228.175781 252 C 228.175781 254.070312 226.496094 255.75 224.425781 255.75 C 222.355469 255.75 220.675781 254.070312 220.675781 252 C 220.675781 249.929688 222.355469 248.25 224.425781 248.25 C 226.496094 248.25 228.175781 249.929688 228.175781 252 Z M 228.175781 252 " fill-opacity="1" fill-rule="evenodd"/></g><g clip-path="url(#f6b4b3f1de)"><path fill="#8c9290" d="M 228.175781 226.179688 C 228.175781 228.25 226.496094 229.929688 224.425781 229.929688 C 222.355469 229.929688 220.675781 228.25 220.675781 226.179688 C 220.675781 224.109375 222.355469 222.429688 224.425781 222.429688 C 226.496094 222.429688 228.175781 224.109375 228.175781 226.179688 Z M 228.175781 226.179688 " fill-opacity="1" fill-rule="evenodd"/></g><g clip-path="url(#455340ac9d)"><path fill="#8c9290" d="M 228.175781 200.359375 C 228.175781 202.429688 226.496094 204.109375 224.425781 204.109375 C 222.355469 204.109375 220.675781 202.429688 220.675781 200.359375 C 220.675781 198.289062 222.355469 196.609375 224.425781 196.609375 C 226.496094 196.609375 228.175781 198.289062 228.175781 200.359375 Z M 228.175781 200.359375 " fill-opacity="1" fill-rule="evenodd"/></g><g clip-path="url(#9378b086c8)"><path fill="#8c9290" d="M 228.175781 174.539062 C 228.175781 176.613281 226.496094 178.289062 224.425781 178.289062 C 222.355469 178.289062 220.675781 176.613281 220.675781 174.539062 C 220.675781 172.46875 222.355469 170.789062 224.425781 170.789062 C 226.496094 170.789062 228.175781 172.46875 228.175781 174.539062 Z M 228.175781 174.539062 " fill-opacity="1" fill-rule="evenodd"/></g><g clip-path="url(#d8e0d280b9)"><path fill="#8c9290" d="M 228.175781 148.722656 C 228.175781 150.792969 226.496094 152.472656 224.425781 152.472656 C 222.355469 152.472656 220.675781 150.792969 220.675781 148.722656 C 220.675781 146.648438 222.355469 144.972656 224.425781 144.972656 C 226.496094 144.972656 228.175781 146.648438 228.175781 148.722656 Z M 228.175781 148.722656 " fill-opacity="1" fill-rule="evenodd"/></g><g clip-path="url(#766f31994f)"><path fill="#8c9290" d="M 228.175781 122.902344 C 228.175781 124.972656 226.496094 126.652344 224.425781 126.652344 C 222.355469 126.652344 220.675781 124.972656 220.675781 122.902344 C 220.675781 120.828125 222.355469 119.152344 224.425781 119.152344 C 226.496094 119.152344 228.175781 120.828125 228.175781 122.902344 Z M 228.175781 122.902344 " fill-opacity="1" fill-rule="evenodd"/></g><g clip-path="url(#b62abb7b09)"><path fill="#8c9290" d="M 179 252 C 179 254.070312 177.320312 255.75 175.25 255.75 C 173.179688 255.75 171.5 254.070312 171.5 252 C 171.5 249.929688 173.179688 248.25 175.25 248.25 C 177.320312 248.25 179 249.929688 179 252 Z M 179 252 " fill-opacity="1" fill-rule="evenodd"/></g><g clip-path="url(#d614243046)"><path fill="#8c9290" d="M 179 226.179688 C 179 228.25 177.320312 229.929688 175.25 229.929688 C 173.179688 229.929688 171.5 228.25 171.5 226.179688 C 171.5 224.109375 173.179688 222.429688 175.25 222.429688 C 177.320312 222.429688 179 224.109375 179 226.179688 Z M 179 226.179688 " fill-opacity="1" fill-rule="evenodd"/></g><g clip-path="url(#b6c37bfaf8)"><path fill="#8c9290" d="M 179 200.359375 C 179 202.429688 177.320312 204.109375 175.25 204.109375 C 173.179688 204.109375 171.5 202.429688 171.5 200.359375 C 171.5 198.289062 173.179688 196.609375 175.25 196.609375 C 177.320312 196.609375 179 198.289062 179 200.359375 Z M 179 200.359375 " fill-opacity="1" fill-rule="evenodd"/></g><g clip-path="url(#9699d8ac06)"><path fill="#8c9290" d="M 179 174.539062 C 179 176.613281 177.320312 178.289062 175.25 178.289062 C 173.179688 178.289062 171.5 176.613281 171.5 174.539062 C 171.5 172.46875 173.179688 170.789062 175.25 170.789062 C 177.320312 170.789062 179 172.46875 179 174.539062 Z M 179 174.539062 " fill-opacity="1" fill-rule="evenodd"/></g><g clip-path="url(#c4a0528d31)"><path fill="#8c9290" d="M 179 148.722656 C 179 150.792969 177.320312 152.472656 175.25 152.472656 C 173.179688 152.472656 171.5 150.792969 171.5 148.722656 C 171.5 146.648438 173.179688 144.972656 175.25 144.972656 C 177.320312 144.972656 179 146.648438 179 148.722656 Z M 179 148.722656 " fill-opacity="1" fill-rule="evenodd"/></g><g clip-path="url(#ea0658a003)"><path fill="#8c9290" d="M 179 122.902344 C 179 124.972656 177.320312 126.652344 175.25 126.652344 C 173.179688 126.652344 171.5 124.972656 171.5 122.902344 C 171.5 120.828125 173.179688 119.152344 175.25 119.152344 C 177.320312 119.152344 179 120.828125 179 122.902344 Z M 179 122.902344 " fill-opacity="1" fill-rule="evenodd"/></g><g clip-path="url(#7c381549a7)"><path fill="#8c9290" d="M 326.523438 252 C 326.523438 254.070312 324.84375 255.75 322.773438 255.75 C 320.699219 255.75 319.023438 254.070312 319.023438 252 C 319.023438 249.929688 320.699219 248.25 322.773438 248.25 C 324.84375 248.25 326.523438 249.929688 326.523438 252 Z M 326.523438 252 " fill-opacity="1" fill-rule="evenodd"/></g><g clip-path="url(#19dab29936)"><path fill="#8c9290" d="M 326.523438 226.179688 C 326.523438 228.25 324.84375 229.929688 322.773438 229.929688 C 320.699219 229.929688 319.023438 228.25 319.023438 226.179688 C 319.023438 224.109375 320.699219 222.429688 322.773438 222.429688 C 324.84375 222.429688 326.523438 224.109375 326.523438 226.179688 Z M 326.523438 226.179688 " fill-opacity="1" fill-rule="evenodd"/></g><g clip-path="url(#24a66e819b)"><path fill="#8c9290" d="M 326.523438 200.359375 C 326.523438 202.429688 324.84375 204.109375 322.773438 204.109375 C 320.699219 204.109375 319.023438 202.429688 319.023438 200.359375 C 319.023438 198.289062 320.699219 196.609375 322.773438 196.609375 C 324.84375 196.609375 326.523438 198.289062 326.523438 200.359375 Z M 326.523438 200.359375 " fill-opacity="1" fill-rule="evenodd"/></g><g clip-path="url(#6db2b4299d)"><path fill="#8c9290" d="M 326.523438 174.539062 C 326.523438 176.613281 324.84375 178.289062 322.773438 178.289062 C 320.699219 178.289062 319.023438 176.613281 319.023438 174.539062 C 319.023438 172.46875 320.699219 170.789062 322.773438 170.789062 C 324.84375 170.789062 326.523438 172.46875 326.523438 174.539062 Z M 326.523438 174.539062 " fill-opacity="1" fill-rule="evenodd"/></g><g clip-path="url(#e613377138)"><path fill="#8c9290" d="M 326.523438 148.722656 C 326.523438 150.792969 324.84375 152.472656 322.773438 152.472656 C 320.699219 152.472656 319.023438 150.792969 319.023438 148.722656 C 319.023438 146.648438 320.699219 144.972656 322.773438 144.972656 C 324.84375 144.972656 326.523438 146.648438 326.523438 148.722656 Z M 326.523438 148.722656 " fill-opacity="1" fill-rule="evenodd"/></g><g clip-path="url(#786de353e4)"><path fill="#8c9290" d="M 326.523438 122.902344 C 326.523438 124.972656 324.84375 126.652344 322.773438 126.652344 C 320.699219 126.652344 319.023438 124.972656 319.023438 122.902344 C 319.023438 120.828125 320.699219 119.152344 322.773438 119.152344 C 324.84375 119.152344 326.523438 120.828125 326.523438 122.902344 Z M 326.523438 122.902344 " fill-opacity="1" fill-rule="evenodd"/></g><g clip-path="url(#5a064f46c9)"><path fill="#8c9290" d="M 252.761719 252 C 252.761719 254.070312 251.082031 255.75 249.011719 255.75 C 246.941406 255.75 245.261719 254.070312 245.261719 252 C 245.261719 249.929688 246.941406 248.25 249.011719 248.25 C 251.082031 248.25 252.761719 249.929688 252.761719 252 Z M 252.761719 252 " fill-opacity="1" fill-rule="evenodd"/></g><g clip-path="url(#a45cee10a8)"><path fill="#8c9290" d="M 252.761719 226.179688 C 252.761719 228.25 251.082031 229.929688 249.011719 229.929688 C 246.941406 229.929688 245.261719 228.25 245.261719 226.179688 C 245.261719 224.109375 246.941406 222.429688 249.011719 222.429688 C 251.082031 222.429688 252.761719 224.109375 252.761719 226.179688 Z M 252.761719 226.179688 " fill-opacity="1" fill-rule="evenodd"/></g><g clip-path="url(#ce8999ab04)"><path fill="#8c9290" d="M 252.761719 200.359375 C 252.761719 202.429688 251.082031 204.109375 249.011719 204.109375 C 246.941406 204.109375 245.261719 202.429688 245.261719 200.359375 C 245.261719 198.289062 246.941406 196.609375 249.011719 196.609375 C 251.082031 196.609375 252.761719 198.289062 252.761719 200.359375 Z M 252.761719 200.359375 " fill-opacity="1" fill-rule="evenodd"/></g><g clip-path="url(#18388426e0)"><path fill="#8c9290" d="M 252.761719 174.539062 C 252.761719 176.613281 251.082031 178.289062 249.011719 178.289062 C 246.941406 178.289062 245.261719 176.613281 245.261719 174.539062 C 245.261719 172.46875 246.941406 170.789062 249.011719 170.789062 C 251.082031 170.789062 252.761719 172.46875 252.761719 174.539062 Z M 252.761719 174.539062 " fill-opacity="1" fill-rule="evenodd"/></g><g clip-path="url(#c1dbaeebec)"><path fill="#8c9290" d="M 252.761719 148.722656 C 252.761719 150.792969 251.082031 152.472656 249.011719 152.472656 C 246.941406 152.472656 245.261719 150.792969 245.261719 148.722656 C 245.261719 146.648438 246.941406 144.972656 249.011719 144.972656 C 251.082031 144.972656 252.761719 146.648438 252.761719 148.722656 Z M 252.761719 148.722656 " fill-opacity="1" fill-rule="evenodd"/></g><g clip-path="url(#f50e4674cc)"><path fill="#8c9290" d="M 252.761719 122.902344 C 252.761719 124.972656 251.082031 126.652344 249.011719 126.652344 C 246.941406 126.652344 245.261719 124.972656 245.261719 122.902344 C 245.261719 120.828125 246.941406 119.152344 249.011719 119.152344 C 251.082031 119.152344 252.761719 120.828125 252.761719 122.902344 Z M 252.761719 122.902344 " fill-opacity="1" fill-rule="evenodd"/></g><g clip-path="url(#142f233b6e)"><path fill="#8c9290" d="M 56.066406 252 C 56.066406 254.070312 54.386719 255.75 52.316406 255.75 C 50.246094 255.75 48.566406 254.070312 48.566406 252 C 48.566406 249.929688 50.246094 248.25 52.316406 248.25 C 54.386719 248.25 56.066406 249.929688 56.066406 252 Z M 56.066406 252 " fill-opacity="1" fill-rule="evenodd"/></g><g clip-path="url(#e3c67cde81)"><path fill="#8c9290" d="M 56.066406 226.179688 C 56.066406 228.25 54.386719 229.929688 52.316406 229.929688 C 50.246094 229.929688 48.566406 228.25 48.566406 226.179688 C 48.566406 224.109375 50.246094 222.429688 52.316406 222.429688 C 54.386719 222.429688 56.066406 224.109375 56.066406 226.179688 Z M 56.066406 226.179688 " fill-opacity="1" fill-rule="evenodd"/></g><g clip-path="url(#af972e4c9f)"><path fill="#8c9290" d="M 56.066406 200.359375 C 56.066406 202.429688 54.386719 204.109375 52.316406 204.109375 C 50.246094 204.109375 48.566406 202.429688 48.566406 200.359375 C 48.566406 198.289062 50.246094 196.609375 52.316406 196.609375 C 54.386719 196.609375 56.066406 198.289062 56.066406 200.359375 Z M 56.066406 200.359375 " fill-opacity="1" fill-rule="evenodd"/></g><g clip-path="url(#88933c3294)"><path fill="#8c9290" d="M 56.066406 174.539062 C 56.066406 176.613281 54.386719 178.289062 52.316406 178.289062 C 50.246094 178.289062 48.566406 176.613281 48.566406 174.539062 C 48.566406 172.46875 50.246094 170.789062 52.316406 170.789062 C 54.386719 170.789062 56.066406 172.46875 56.066406 174.539062 Z M 56.066406 174.539062 " fill-opacity="1" fill-rule="evenodd"/></g><g clip-path="url(#040b90eb04)"><path fill="#8c9290" d="M 56.066406 148.722656 C 56.066406 150.792969 54.386719 152.472656 52.316406 152.472656 C 50.246094 152.472656 48.566406 150.792969 48.566406 148.722656 C 48.566406 146.648438 50.246094 144.972656 52.316406 144.972656 C 54.386719 144.972656 56.066406 146.648438 56.066406 148.722656 Z M 56.066406 148.722656 " fill-opacity="1" fill-rule="evenodd"/></g><g clip-path="url(#72c77e5398)"><path fill="#8c9290" d="M 56.066406 122.902344 C 56.066406 124.972656 54.386719 126.652344 52.316406 126.652344 C 50.246094 126.652344 48.566406 124.972656 48.566406 122.902344 C 48.566406 120.828125 50.246094 119.152344 52.316406 119.152344 C 54.386719 119.152344 56.066406 120.828125 56.066406 122.902344 Z M 56.066406 122.902344 " fill-opacity="1" fill-rule="evenodd"/></g><g clip-path="url(#4098a25932)"><path fill="#8c9290" d="M 129.828125 252 C 129.828125 254.070312 128.148438 255.75 126.078125 255.75 C 124.007812 255.75 122.328125 254.070312 122.328125 252 C 122.328125 249.929688 124.007812 248.25 126.078125 248.25 C 128.148438 248.25 129.828125 249.929688 129.828125 252 Z M 129.828125 252 " fill-opacity="1" fill-rule="evenodd"/></g><g clip-path="url(#a96b1429da)"><path fill="#8c9290" d="M 129.828125 226.179688 C 129.828125 228.25 128.148438 229.929688 126.078125 229.929688 C 124.007812 229.929688 122.328125 228.25 122.328125 226.179688 C 122.328125 224.109375 124.007812 222.429688 126.078125 222.429688 C 128.148438 222.429688 129.828125 224.109375 129.828125 226.179688 Z M 129.828125 226.179688 " fill-opacity="1" fill-rule="evenodd"/></g><g clip-path="url(#786f3926ea)"><path fill="#8c9290" d="M 129.828125 200.359375 C 129.828125 202.429688 128.148438 204.109375 126.078125 204.109375 C 124.007812 204.109375 122.328125 202.429688 122.328125 200.359375 C 122.328125 198.289062 124.007812 196.609375 126.078125 196.609375 C 128.148438 196.609375 129.828125 198.289062 129.828125 200.359375 Z M 129.828125 200.359375 " fill-opacity="1" fill-rule="evenodd"/></g><g clip-path="url(#ad776eef9b)"><path fill="#8c9290" d="M 129.828125 174.539062 C 129.828125 176.613281 128.148438 178.289062 126.078125 178.289062 C 124.007812 178.289062 122.328125 176.613281 122.328125 174.539062 C 122.328125 172.46875 124.007812 170.789062 126.078125 170.789062 C 128.148438 170.789062 129.828125 172.46875 129.828125 174.539062 Z M 129.828125 174.539062 " fill-opacity="1" fill-rule="evenodd"/></g><g clip-path="url(#161c19a92f)"><path fill="#8c9290" d="M 129.828125 148.722656 C 129.828125 150.792969 128.148438 152.472656 126.078125 152.472656 C 124.007812 152.472656 122.328125 150.792969 122.328125 148.722656 C 122.328125 146.648438 124.007812 144.972656 126.078125 144.972656 C 128.148438 144.972656 129.828125 146.648438 129.828125 148.722656 Z M 129.828125 148.722656 " fill-opacity="1" fill-rule="evenodd"/></g><g clip-path="url(#9a5668ceef)"><path fill="#8c9290" d="M 129.828125 122.902344 C 129.828125 124.972656 128.148438 126.652344 126.078125 126.652344 C 124.007812 126.652344 122.328125 124.972656 122.328125 122.902344 C 122.328125 120.828125 124.007812 119.152344 126.078125 119.152344 C 128.148438 119.152344 129.828125 120.828125 129.828125 122.902344 Z M 129.828125 122.902344 " fill-opacity="1" fill-rule="evenodd"/></g><g clip-path="url(#6550636ca0)"><path fill="#8c9290" d="M 154.414062 252 C 154.414062 254.070312 152.734375 255.75 150.664062 255.75 C 148.59375 255.75 146.914062 254.070312 146.914062 252 C 146.914062 249.929688 148.59375 248.25 150.664062 248.25 C 152.734375 248.25 154.414062 249.929688 154.414062 252 Z M 154.414062 252 " fill-opacity="1" fill-rule="evenodd"/></g><g clip-path="url(#3def4a69d7)"><path fill="#8c9290" d="M 154.414062 226.179688 C 154.414062 228.25 152.734375 229.929688 150.664062 229.929688 C 148.59375 229.929688 146.914062 228.25 146.914062 226.179688 C 146.914062 224.109375 148.59375 222.429688 150.664062 222.429688 C 152.734375 222.429688 154.414062 224.109375 154.414062 226.179688 Z M 154.414062 226.179688 " fill-opacity="1" fill-rule="evenodd"/></g><g clip-path="url(#b2c19d2442)"><path fill="#8c9290" d="M 154.414062 200.359375 C 154.414062 202.429688 152.734375 204.109375 150.664062 204.109375 C 148.59375 204.109375 146.914062 202.429688 146.914062 200.359375 C 146.914062 198.289062 148.59375 196.609375 150.664062 196.609375 C 152.734375 196.609375 154.414062 198.289062 154.414062 200.359375 Z M 154.414062 200.359375 " fill-opacity="1" fill-rule="evenodd"/></g><g clip-path="url(#ce4952dea1)"><path fill="#8c9290" d="M 154.414062 174.539062 C 154.414062 176.613281 152.734375 178.289062 150.664062 178.289062 C 148.59375 178.289062 146.914062 176.613281 146.914062 174.539062 C 146.914062 172.46875 148.59375 170.789062 150.664062 170.789062 C 152.734375 170.789062 154.414062 172.46875 154.414062 174.539062 Z M 154.414062 174.539062 " fill-opacity="1" fill-rule="evenodd"/></g><g clip-path="url(#7c828a670d)"><path fill="#8c9290" d="M 154.414062 148.722656 C 154.414062 150.792969 152.734375 152.472656 150.664062 152.472656 C 148.59375 152.472656 146.914062 150.792969 146.914062 148.722656 C 146.914062 146.648438 148.59375 144.972656 150.664062 144.972656 C 152.734375 144.972656 154.414062 146.648438 154.414062 148.722656 Z M 154.414062 148.722656 " fill-opacity="1" fill-rule="evenodd"/></g><g clip-path="url(#511fe20859)"><path fill="#8c9290" d="M 154.414062 122.902344 C 154.414062 124.972656 152.734375 126.652344 150.664062 126.652344 C 148.59375 126.652344 146.914062 124.972656 146.914062 122.902344 C 146.914062 120.828125 148.59375 119.152344 150.664062 119.152344 C 152.734375 119.152344 154.414062 120.828125 154.414062 122.902344 Z M 154.414062 122.902344 " fill-opacity="1" fill-rule="evenodd"/></g><g clip-path="url(#32e89c9883)"><path fill="#8c9290" d="M 80.652344 252 C 80.652344 254.070312 78.972656 255.75 76.902344 255.75 C 74.832031 255.75 73.152344 254.070312 73.152344 252 C 73.152344 249.929688 74.832031 248.25 76.902344 248.25 C 78.972656 248.25 80.652344 249.929688 80.652344 252 Z M 80.652344 252 " fill-opacity="1" fill-rule="evenodd"/></g><g clip-path="url(#aded65b01d)"><path fill="#8c9290" d="M 80.652344 226.179688 C 80.652344 228.25 78.972656 229.929688 76.902344 229.929688 C 74.832031 229.929688 73.152344 228.25 73.152344 226.179688 C 73.152344 224.109375 74.832031 222.429688 76.902344 222.429688 C 78.972656 222.429688 80.652344 224.109375 80.652344 226.179688 Z M 80.652344 226.179688 " fill-opacity="1" fill-rule="evenodd"/></g><g clip-path="url(#ee4f8c0e58)"><path fill="#8c9290" d="M 80.652344 200.359375 C 80.652344 202.429688 78.972656 204.109375 76.902344 204.109375 C 74.832031 204.109375 73.152344 202.429688 73.152344 200.359375 C 73.152344 198.289062 74.832031 196.609375 76.902344 196.609375 C 78.972656 196.609375 80.652344 198.289062 80.652344 200.359375 Z M 80.652344 200.359375 " fill-opacity="1" fill-rule="evenodd"/></g><g clip-path="url(#3583251749)"><path fill="#8c9290" d="M 80.652344 174.539062 C 80.652344 176.613281 78.972656 178.289062 76.902344 178.289062 C 74.832031 178.289062 73.152344 176.613281 73.152344 174.539062 C 73.152344 172.46875 74.832031 170.789062 76.902344 170.789062 C 78.972656 170.789062 80.652344 172.46875 80.652344 174.539062 Z M 80.652344 174.539062 " fill-opacity="1" fill-rule="evenodd"/></g><g clip-path="url(#94dff7ca31)"><path fill="#8c9290" d="M 80.652344 148.722656 C 80.652344 150.792969 78.972656 152.472656 76.902344 152.472656 C 74.832031 152.472656 73.152344 150.792969 73.152344 148.722656 C 73.152344 146.648438 74.832031 144.972656 76.902344 144.972656 C 78.972656 144.972656 80.652344 146.648438 80.652344 148.722656 Z M 80.652344 148.722656 " fill-opacity="1" fill-rule="evenodd"/></g><g clip-path="url(#95fd50ad0e)"><path fill="#8c9290" d="M 80.652344 122.902344 C 80.652344 124.972656 78.972656 126.652344 76.902344 126.652344 C 74.832031 126.652344 73.152344 124.972656 73.152344 122.902344 C 73.152344 120.828125 74.832031 119.152344 76.902344 119.152344 C 78.972656 119.152344 80.652344 120.828125 80.652344 122.902344 Z M 80.652344 122.902344 " fill-opacity="1" fill-rule="evenodd"/></g><g clip-path="url(#61bd8c8352)"><path fill="#8c9290" d="M 31.480469 252 C 31.480469 254.070312 29.800781 255.75 27.730469 255.75 C 25.660156 255.75 23.980469 254.070312 23.980469 252 C 23.980469 249.929688 25.660156 248.25 27.730469 248.25 C 29.800781 248.25 31.480469 249.929688 31.480469 252 Z M 31.480469 252 " fill-opacity="1" fill-rule="evenodd"/></g><g clip-path="url(#5beefda0e9)"><path fill="#8c9290" d="M 31.480469 226.179688 C 31.480469 228.25 29.800781 229.929688 27.730469 229.929688 C 25.660156 229.929688 23.980469 228.25 23.980469 226.179688 C 23.980469 224.109375 25.660156 222.429688 27.730469 222.429688 C 29.800781 222.429688 31.480469 224.109375 31.480469 226.179688 Z M 31.480469 226.179688 " fill-opacity="1" fill-rule="evenodd"/></g><g clip-path="url(#c581f7d1b8)"><path fill="#8c9290" d="M 31.480469 200.359375 C 31.480469 202.429688 29.800781 204.109375 27.730469 204.109375 C 25.660156 204.109375 23.980469 202.429688 23.980469 200.359375 C 23.980469 198.289062 25.660156 196.609375 27.730469 196.609375 C 29.800781 196.609375 31.480469 198.289062 31.480469 200.359375 Z M 31.480469 200.359375 " fill-opacity="1" fill-rule="evenodd"/></g><g clip-path="url(#37b7380cfc)"><path fill="#8c9290" d="M 31.480469 174.539062 C 31.480469 176.613281 29.800781 178.289062 27.730469 178.289062 C 25.660156 178.289062 23.980469 176.613281 23.980469 174.539062 C 23.980469 172.46875 25.660156 170.789062 27.730469 170.789062 C 29.800781 170.789062 31.480469 172.46875 31.480469 174.539062 Z M 31.480469 174.539062 " fill-opacity="1" fill-rule="evenodd"/></g><g clip-path="url(#86fbe22fd7)"><path fill="#8c9290" d="M 31.480469 148.722656 C 31.480469 150.792969 29.800781 152.472656 27.730469 152.472656 C 25.660156 152.472656 23.980469 150.792969 23.980469 148.722656 C 23.980469 146.648438 25.660156 144.972656 27.730469 144.972656 C 29.800781 144.972656 31.480469 146.648438 31.480469 148.722656 Z M 31.480469 148.722656 " fill-opacity="1" fill-rule="evenodd"/></g><g clip-path="url(#108d997ae0)"><path fill="#8c9290" d="M 31.480469 122.902344 C 31.480469 124.972656 29.800781 126.652344 27.730469 126.652344 C 25.660156 126.652344 23.980469 124.972656 23.980469 122.902344 C 23.980469 120.828125 25.660156 119.152344 27.730469 119.152344 C 29.800781 119.152344 31.480469 120.828125 31.480469 122.902344 Z M 31.480469 122.902344 " fill-opacity="1" fill-rule="evenodd"/></g><g clip-path="url(#a11b177332)"><path fill="#8c9290" d="M 351.109375 252 C 351.109375 254.070312 349.429688 255.75 347.359375 255.75 C 345.289062 255.75 343.609375 254.070312 343.609375 252 C 343.609375 249.929688 345.289062 248.25 347.359375 248.25 C 349.429688 248.25 351.109375 249.929688 351.109375 252 Z M 351.109375 252 " fill-opacity="1" fill-rule="evenodd"/></g><g clip-path="url(#6897987b27)"><path fill="#8c9290" d="M 351.109375 226.179688 C 351.109375 228.25 349.429688 229.929688 347.359375 229.929688 C 345.289062 229.929688 343.609375 228.25 343.609375 226.179688 C 343.609375 224.109375 345.289062 222.429688 347.359375 222.429688 C 349.429688 222.429688 351.109375 224.109375 351.109375 226.179688 Z M 351.109375 226.179688 " fill-opacity="1" fill-rule="evenodd"/></g><g clip-path="url(#5e1ad592e6)"><path fill="#8c9290" d="M 351.109375 200.359375 C 351.109375 202.429688 349.429688 204.109375 347.359375 204.109375 C 345.289062 204.109375 343.609375 202.429688 343.609375 200.359375 C 343.609375 198.289062 345.289062 196.609375 347.359375 196.609375 C 349.429688 196.609375 351.109375 198.289062 351.109375 200.359375 Z M 351.109375 200.359375 " fill-opacity="1" fill-rule="evenodd"/></g><g clip-path="url(#c46b1e71c9)"><path fill="#8c9290" d="M 351.109375 174.539062 C 351.109375 176.613281 349.429688 178.289062 347.359375 178.289062 C 345.289062 178.289062 343.609375 176.613281 343.609375 174.539062 C 343.609375 172.46875 345.289062 170.789062 347.359375 170.789062 C 349.429688 170.789062 351.109375 172.46875 351.109375 174.539062 Z M 351.109375 174.539062 " fill-opacity="1" fill-rule="evenodd"/></g><g clip-path="url(#181be9d847)"><path fill="#8c9290" d="M 351.109375 148.722656 C 351.109375 150.792969 349.429688 152.472656 347.359375 152.472656 C 345.289062 152.472656 343.609375 150.792969 343.609375 148.722656 C 343.609375 146.648438 345.289062 144.972656 347.359375 144.972656 C 349.429688 144.972656 351.109375 146.648438 351.109375 148.722656 Z M 351.109375 148.722656 " fill-opacity="1" fill-rule="evenodd"/></g><g clip-path="url(#a1c4e19ae7)"><path fill="#8c9290" d="M 351.109375 122.902344 C 351.109375 124.972656 349.429688 126.652344 347.359375 126.652344 C 345.289062 126.652344 343.609375 124.972656 343.609375 122.902344 C 343.609375 120.828125 345.289062 119.152344 347.359375 119.152344 C 349.429688 119.152344 351.109375 120.828125 351.109375 122.902344 Z M 351.109375 122.902344 " fill-opacity="1" fill-rule="evenodd"/></g><g clip-path="url(#2f268e4c7f)"><path fill="#8c9290" d="M 105.242188 252 C 105.242188 254.070312 103.5625 255.75 101.492188 255.75 C 99.417969 255.75 97.742188 254.070312 97.742188 252 C 97.742188 249.929688 99.417969 248.25 101.492188 248.25 C 103.5625 248.25 105.242188 249.929688 105.242188 252 Z M 105.242188 252 " fill-opacity="1" fill-rule="evenodd"/></g><g clip-path="url(#1396a079d4)"><path fill="#8c9290" d="M 105.242188 226.179688 C 105.242188 228.25 103.5625 229.929688 101.492188 229.929688 C 99.417969 229.929688 97.742188 228.25 97.742188 226.179688 C 97.742188 224.109375 99.417969 222.429688 101.492188 222.429688 C 103.5625 222.429688 105.242188 224.109375 105.242188 226.179688 Z M 105.242188 226.179688 " fill-opacity="1" fill-rule="evenodd"/></g><g clip-path="url(#fb4fc0bac1)"><path fill="#8c9290" d="M 105.242188 200.359375 C 105.242188 202.429688 103.5625 204.109375 101.492188 204.109375 C 99.417969 204.109375 97.742188 202.429688 97.742188 200.359375 C 97.742188 198.289062 99.417969 196.609375 101.492188 196.609375 C 103.5625 196.609375 105.242188 198.289062 105.242188 200.359375 Z M 105.242188 200.359375 " fill-opacity="1" fill-rule="evenodd"/></g><g clip-path="url(#c6fdd62056)"><path fill="#8c9290" d="M 105.242188 174.539062 C 105.242188 176.613281 103.5625 178.289062 101.492188 178.289062 C 99.417969 178.289062 97.742188 176.613281 97.742188 174.539062 C 97.742188 172.46875 99.417969 170.789062 101.492188 170.789062 C 103.5625 170.789062 105.242188 172.46875 105.242188 174.539062 Z M 105.242188 174.539062 " fill-opacity="1" fill-rule="evenodd"/></g><g clip-path="url(#b3d31b33b1)"><path fill="#8c9290" d="M 105.242188 148.722656 C 105.242188 150.792969 103.5625 152.472656 101.492188 152.472656 C 99.417969 152.472656 97.742188 150.792969 97.742188 148.722656 C 97.742188 146.648438 99.417969 144.972656 101.492188 144.972656 C 103.5625 144.972656 105.242188 146.648438 105.242188 148.722656 Z M 105.242188 148.722656 " fill-opacity="1" fill-rule="evenodd"/></g><g clip-path="url(#9c78b373f0)"><path fill="#8c9290" d="M 105.242188 122.902344 C 105.242188 124.972656 103.5625 126.652344 101.492188 126.652344 C 99.417969 126.652344 97.742188 124.972656 97.742188 122.902344 C 97.742188 120.828125 99.417969 119.152344 101.492188 119.152344 C 103.5625 119.152344 105.242188 120.828125 105.242188 122.902344 Z M 105.242188 122.902344 " fill-opacity="1" fill-rule="evenodd"/></g><g clip-path="url(#2bbd76bd15)"><path fill="#8c9290" d="M 375.695312 252 C 375.695312 254.070312 374.015625 255.75 371.945312 255.75 C 369.875 255.75 368.195312 254.070312 368.195312 252 C 368.195312 249.929688 369.875 248.25 371.945312 248.25 C 374.015625 248.25 375.695312 249.929688 375.695312 252 Z M 375.695312 252 " fill-opacity="1" fill-rule="evenodd"/></g><g clip-path="url(#35fcf5e738)"><path fill="#8c9290" d="M 375.695312 226.179688 C 375.695312 228.25 374.015625 229.929688 371.945312 229.929688 C 369.875 229.929688 368.195312 228.25 368.195312 226.179688 C 368.195312 224.109375 369.875 222.429688 371.945312 222.429688 C 374.015625 222.429688 375.695312 224.109375 375.695312 226.179688 Z M 375.695312 226.179688 " fill-opacity="1" fill-rule="evenodd"/></g><g clip-path="url(#5ef84c0697)"><path fill="#8c9290" d="M 375.695312 200.359375 C 375.695312 202.429688 374.015625 204.109375 371.945312 204.109375 C 369.875 204.109375 368.195312 202.429688 368.195312 200.359375 C 368.195312 198.289062 369.875 196.609375 371.945312 196.609375 C 374.015625 196.609375 375.695312 198.289062 375.695312 200.359375 Z M 375.695312 200.359375 " fill-opacity="1" fill-rule="evenodd"/></g><g clip-path="url(#86fc929904)"><path fill="#8c9290" d="M 375.695312 174.539062 C 375.695312 176.613281 374.015625 178.289062 371.945312 178.289062 C 369.875 178.289062 368.195312 176.613281 368.195312 174.539062 C 368.195312 172.46875 369.875 170.789062 371.945312 170.789062 C 374.015625 170.789062 375.695312 172.46875 375.695312 174.539062 Z M 375.695312 174.539062 " fill-opacity="1" fill-rule="evenodd"/></g><g clip-path="url(#cdc2cc229e)"><path fill="#8c9290" d="M 375.695312 148.722656 C 375.695312 150.792969 374.015625 152.472656 371.945312 152.472656 C 369.875 152.472656 368.195312 150.792969 368.195312 148.722656 C 368.195312 146.648438 369.875 144.972656 371.945312 144.972656 C 374.015625 144.972656 375.695312 146.648438 375.695312 148.722656 Z M 375.695312 148.722656 " fill-opacity="1" fill-rule="evenodd"/></g><g clip-path="url(#eb4eec60df)"><path fill="#8c9290" d="M 375.695312 122.902344 C 375.695312 124.972656 374.015625 126.652344 371.945312 126.652344 C 369.875 126.652344 368.195312 124.972656 368.195312 122.902344 C 368.195312 120.828125 369.875 119.152344 371.945312 119.152344 C 374.015625 119.152344 375.695312 120.828125 375.695312 122.902344 Z M 375.695312 122.902344 " fill-opacity="1" fill-rule="evenodd"/></g><g clip-path="url(#acb6c02f25)"><path fill="#8c9290" d="M 6.894531 252 C 6.894531 254.070312 5.214844 255.75 3.144531 255.75 C 1.070312 255.75 -0.605469 254.070312 -0.605469 252 C -0.605469 249.929688 1.070312 248.25 3.144531 248.25 C 5.214844 248.25 6.894531 249.929688 6.894531 252 Z M 6.894531 252 " fill-opacity="1" fill-rule="evenodd"/></g><g clip-path="url(#1bc44d3683)"><path fill="#8c9290" d="M 6.894531 226.179688 C 6.894531 228.25 5.214844 229.929688 3.144531 229.929688 C 1.070312 229.929688 -0.605469 228.25 -0.605469 226.179688 C -0.605469 224.109375 1.070312 222.429688 3.144531 222.429688 C 5.214844 222.429688 6.894531 224.109375 6.894531 226.179688 Z M 6.894531 226.179688 " fill-opacity="1" fill-rule="evenodd"/></g><g clip-path="url(#5df877e842)"><path fill="#8c9290" d="M 6.894531 200.359375 C 6.894531 202.429688 5.214844 204.109375 3.144531 204.109375 C 1.070312 204.109375 -0.605469 202.429688 -0.605469 200.359375 C -0.605469 198.289062 1.070312 196.609375 3.144531 196.609375 C 5.214844 196.609375 6.894531 198.289062 6.894531 200.359375 Z M 6.894531 200.359375 " fill-opacity="1" fill-rule="evenodd"/></g><g clip-path="url(#72bf94b88d)"><path fill="#8c9290" d="M 6.894531 174.539062 C 6.894531 176.613281 5.214844 178.289062 3.144531 178.289062 C 1.070312 178.289062 -0.605469 176.613281 -0.605469 174.539062 C -0.605469 172.46875 1.070312 170.789062 3.144531 170.789062 C 5.214844 170.789062 6.894531 172.46875 6.894531 174.539062 Z M 6.894531 174.539062 " fill-opacity="1" fill-rule="evenodd"/></g><g clip-path="url(#8d3dfc58be)"><path fill="#8c9290" d="M 6.894531 148.722656 C 6.894531 150.792969 5.214844 152.472656 3.144531 152.472656 C 1.070312 152.472656 -0.605469 150.792969 -0.605469 148.722656 C -0.605469 146.648438 1.070312 144.972656 3.144531 144.972656 C 5.214844 144.972656 6.894531 146.648438 6.894531 148.722656 Z M 6.894531 148.722656 " fill-opacity="1" fill-rule="evenodd"/></g><g clip-path="url(#0def6d7c72)"><path fill="#8c9290" d="M 6.894531 122.902344 C 6.894531 124.972656 5.214844 126.652344 3.144531 126.652344 C 1.070312 126.652344 -0.605469 124.972656 -0.605469 122.902344 C -0.605469 120.828125 1.070312 119.152344 3.144531 119.152344 C 5.214844 119.152344 6.894531 120.828125 6.894531 122.902344 Z M 6.894531 122.902344 " fill-opacity="1" fill-rule="evenodd"/></g></svg>